#!OML:ASF F:\VICON\USERDATA\INSTALL\Justin_Nancy\Justin_Nancy.ASF
:FULLY-SPECIFIED
:DEGREES
1
root -10.5879 16.7575 -30.4346 1.47697 -5.56348 0.841688
lowerback 10.6431 -1.75077 -5.54094
upperback -1.32074 -2.7509 4.56532
thorax -6.90964 -1.03776 8.49708
lowerneck -12.9463 0.30944 -12.9429
upperneck 11.6478 1.96993 6.37587
head 5.44492 0.85962 4.28987
rclavicle -2.45499e-014 9.54166e-015
rhumerus -43.2918 25.0295 -97.9455
rradius 115.363
rwrist -6.5302
rhand -13.5176 21.2065
rfingers 7.12502
rthumb 12.5942 -8.39391
lclavicle -2.45499e-014 9.54166e-015
lhumerus -43.9588 -2.85412 96.0146
lradius 102.191
lwrist 20.6288
lhand -14.82 13.4882
lfingers 7.12502
lthumb 11.3384 43.1617
rfemur -15.706 -0.251398 29.0408
rtibia 44.7971
rfoot -21.52 -13.5882
rtoes -0.605256
lfemur -19.8946 2.70501 -16.438
ltibia 83.6628
lfoot 1.76551 -5.5264
ltoes -12.491
2
root -10.5911 16.7487 -30.062 1.55597 -5.28097 0.388857
lowerback 10.615 -1.38161 -4.7988
upperback -1.20562 -2.17124 4.34884
thorax -6.90805 -0.789009 7.73237
lowerneck -14.2538 0.133763 -12.6012
upperneck 13.0727 1.72657 7.0056
head 6.13194 0.783883 4.47295
rclavicle 6.4605e-015 3.26007e-014
rhumerus -42.4028 24.6512 -97.9194
rradius 116.29
rwrist -6.89592
rhand -13.3911 21.6006
rfingers 7.12502
rthumb 12.7162 -7.99225
lclavicle 6.4605e-015 3.26007e-014
lhumerus -44.4874 -4.07193 96.1485
lradius 102.472
lwrist 20.1026
lhand -15.0993 13.7203
lfingers 7.12502
lthumb 11.0689 43.4084
rfemur -13.905 -0.283428 29.5104
rtibia 44.0716
rfoot -21.6708 -14.4008
rtoes -3.43876
lfemur -22.2402 3.11625 -15.7069
ltibia 84.1637
lfoot -0.763591 -4.76147
ltoes -18.0862
3
root -10.5865 16.7382 -29.6939 1.71175 -5.2186 -0.105574
lowerback 10.0306 0.557629 -2.07189
upperback 0.802136 0.619742 2.21627
thorax -4.83921 0.370739 3.39862
lowerneck -21.1286 -2.52457 -8.87968
upperneck 14.0123 -2.10971 6.99683
head 7.96066 -0.776455 3.52947
rclavicle -1.36167e-014 -1.90833e-014
rhumerus -36.4646 18.8524 -96.8726
rradius 117.025
rwrist -7.10236
rhand -13.1566 20.6416
rfingers 7.12502
rthumb 12.9422 -8.93704
lclavicle -1.36167e-014 -1.90833e-014
lhumerus -40.6325 -11.9328 94.7525
lradius 102.006
lwrist 21.0758
lhand -14.5556 13.5263
lfingers 7.12502
lthumb 11.5934 43.1856
rfemur -12.0757 -0.00839256 29.9426
rtibia 43.2681
rfoot -22.3362 -14.4684
rtoes -2.15559
lfemur -24.6301 3.65486 -15.1324
ltibia 84.3641
lfoot -1.80844 -4.64209
ltoes -17.2496
4
root -10.5869 16.7556 -29.3255 1.92803 -5.38254 -0.694972
lowerback 10.1013 0.539812 -1.83737
upperback 0.180122 0.654904 2.68701
thorax -5.53874 0.407509 3.75994
lowerneck -18.8822 -2.29467 -9.7208
upperneck 13.3142 -1.78068 7.21929
head 7.33241 -0.674896 3.76544
rclavicle -3.27995e-015 -2.22639e-014
rhumerus -37.2785 20.5228 -97.0472
rradius 118.092
rwrist -7.79307
rhand -12.5776 19.8011
rfingers 7.12502
rthumb 13.5003 -9.74131
lclavicle -3.27995e-015 -2.22639e-014
lhumerus -42.6379 -10.7609 95.3006
lradius 102.586
lwrist 21.6056
lhand -13.7361 13.3744
lfingers 7.12502
lthumb 12.3835 42.9877
rfemur -10.2597 0.487822 30.5333
rtibia 42.3259
rfoot -22.2085 -14.8151
rtoes -2.62805
lfemur -26.8897 4.32761 -14.566
ltibia 84.2275
lfoot -2.45944 -4.75745
ltoes -16.4929
5
root -10.5944 16.7688 -28.9822 2.19788 -5.77538 -1.64079
lowerback 10.6202 -0.0566428 -2.2717
upperback -1.06125 -0.0827802 4.13186
thorax -7.09504 0.136734 5.69557
lowerneck -15.002 -1.20225 -12.0675
upperneck 12.5405 -0.190575 7.62331
head 6.28571 -0.0452033 4.41725
rclavicle 1.49089e-015 -5.56597e-015
rhumerus -39.8751 24.5613 -97.6459
rradius 119.151
rwrist -8.86172
rhand -12.6265 21.0746
rfingers 7.12502
rthumb 13.4532 -8.47093
lclavicle 1.49089e-015 -5.56597e-015
lhumerus -45.9797 -6.56231 96.2558
lradius 103.291
lwrist 21.1187
lhand -12.6781 13.0246
lfingers 7.12502
lthumb 13.4035 42.5734
rfemur -8.5315 1.25698 31.605
rtibia 41.2815
rfoot -21.3629 -15.2997
rtoes -5.40335
lfemur -29.3621 5.28506 -13.5664
ltibia 83.8169
lfoot -2.72585 -5.19526
ltoes -15.4894
6
root -10.5932 16.8022 -28.6151 2.45841 -6.02201 -2.05241
lowerback 10.6397 -0.230384 -2.55797
upperback -1.64698 -0.292816 4.78105
thorax -7.71227 0.0903059 6.62103
lowerneck -13.5025 -0.625279 -12.8812
upperneck 12.442 0.563204 7.70056
head 5.91998 0.265664 4.62636
rclavicle 1.67973e-014 9.54166e-015
rhumerus -41.3363 26.5656 -98.3042
rradius 120.104
rwrist -9.82611
rhand -12.9875 23.8082
rfingers 7.12502
rthumb 13.1052 -5.76
lclavicle 1.67973e-014 9.54166e-015
lhumerus -47.9182 -4.34604 96.4969
lradius 103.681
lwrist 21.1108
lhand -11.2423 12.6593
lfingers 7.12502
lthumb 14.7871 42.1117
rfemur -6.69037 1.59353 31.9665
rtibia 40.0679
rfoot -20.37 -15.3428
rtoes -9.74065
lfemur -31.5232 5.84102 -13.4036
ltibia 82.8263
lfoot -2.76048 -5.32347
ltoes -12.7122
